# xmcd
#
# Track frame offsets:
#	150
#	20952
#	38922
#	51957
#	72750
#	90732
#
# Disc length: 1379 seconds
#
# Revision: 1
# Processed by: cddbd v1.5.1PL0 Copyright (c) Steve Scherf et al.
# Submitted via: CDex 1.50Beta5
#
DISCID=4f056106
DTITLE=FANATIC◇CRISIS - 月の魔法
DYEAR=2003
DGENRE=Rock
TTITLE0=月の魔法
TTITLE1=Heavenly Body <天体>
TTITLE2=ピンクフラミンゴ
TTITLE3=月の魔法 <Instrumental>
TTITLE4=Heavenly Body <天体> <Instrumental>
TTITLE5=ピンクフラミンゴ <Instrumental>
EXTD=
EXTT0=
EXTT1=
EXTT2=
EXTT3=
EXTT4=
EXTT5=
PLAYORDER=
